<?xml version="1.0" standalone="no"?>
<!DOCTYPE svg PUBLIC "-//W3C//DTD SVG 20010904//EN"
 "http://www.w3.org/TR/2001/REC-SVG-20010904/DTD/svg10.dtd">
<svg version="1.0" xmlns="http://www.w3.org/2000/svg"
 width="512.000000pt" height="512.000000pt" viewBox="0 0 512.000000 512.000000"
 preserveAspectRatio="xMidYMid meet">
<metadata>
Created by potrace 1.14, written by Peter Selinger 2001-2017
</metadata>
<g transform="translate(0.000000,512.000000) scale(0.100000,-0.100000)"
fill="#000000" stroke="none">
<path d="M2507 5044 c-1 -1 -47 -4 -102 -8 -55 -3 -109 -8 -120 -10 -11 -2
-42 -7 -70 -10 -27 -4 -66 -10 -85 -12 -135 -20 -412 -104 -560 -171 -194 -88
-442 -237 -555 -334 -294 -253 -423 -402 -591 -684 -278 -465 -393 -1016 -328
-1565 6 -56 22 -156 29 -190 4 -14 8 -36 11 -50 3 -14 12 -50 20 -80 8 -30 16
-59 18 -65 58 -223 204 -531 350 -740 144 -205 406 -472 586 -595 19 -13 37
-27 40 -31 11 -14 259 -158 342 -197 152 -74 425 -169 530 -186 21 -3 57 -10
80 -15 61 -13 139 -25 253 -36 64 -7 354 -7 420 0 28 2 73 8 100 11 28 3 59 7
70 9 132 16 434 96 550 145 102 44 329 159 376 190 32 22 61 40 64 40 11 0
229 167 289 221 84 76 227 224 278 289 73 90 158 208 158 218 0 5 7 15 15 22
23 19 125 207 177 325 16 39 36 84 43 100 33 73 107 323 121 405 3 14 9 48 14
75 25 135 34 250 34 425 0 140 -11 347 -19 360 -2 3 -6 26 -10 50 -20 142 -97
420 -146 527 -10 24 -19 45 -19 48 0 10 -116 238 -150 295 -313 527 -840 941
-1423 1116 -103 31 -287 71 -362 80 -33 3 -62 8 -65 9 -11 7 -356 24 -363 19z
m348 -688 c55 -8 134 -25 175 -36 41 -12 80 -22 85 -23 122 -32 313 -122 454
-214 385 -250 654 -623 775 -1074 14 -52 28 -112 31 -134 3 -23 7 -51 10 -64
16 -84 22 -356 10 -445 -44 -322 -118 -532 -277 -788 -65 -104 -73 -108 -98
-48 -7 17 -16 30 -20 30 -4 0 -11 10 -17 23 -27 58 -169 189 -265 244 -49 28
-164 70 -219 79 -59 10 -1758 11 -1834 2 -203 -26 -392 -152 -522 -347 l-56
-84 -18 24 c-10 13 -19 27 -19 30 0 4 -16 31 -36 60 -43 64 -110 197 -148 291
-33 84 -92 289 -100 348 -3 25 -8 56 -10 70 -24 144 -23 375 3 528 37 215 74
331 169 532 94 200 306 467 467 591 17 13 36 29 43 36 37 36 184 130 283 182
202 105 428 175 634 197 33 4 61 8 63 9 10 9 355 -6 437 -19z"/>
<path d="M2445 3804 c-187 -32 -343 -117 -473 -260 -47 -51 -136 -183 -137
-204 -1 -3 -6 -14 -12 -25 -6 -12 -22 -59 -34 -105 -47 -181 -26 -398 56 -560
253 -504 922 -608 1306 -203 158 167 231 357 224 588 -7 211 -83 387 -237 545
-168 173 -452 265 -693 224z"/>
</g>
</svg>
